<svg xmlns="http://www.w3.org/2000/svg" viewBox="0 0 379 379" width="379" height="379">
	<style>
		tspan { white-space:pre }
		.shp0 { fill: #9b9b9b } 
	</style>
	<g id="favourite">
		<path id="favourite" fill-rule="evenodd" class="shp0" d="M348.15 203.4L201.06 350.49C197.89 353.67 193.72 355.25 189.56 355.25C188.51 355.25 187.45 355.16 186.4 354.95C183.28 354.38 180.28 352.9 177.88 350.49L30.79 203.4C-10.26 162.36 -10.26 95.57 30.79 54.51C50.67 34.63 77.11 23.69 105.23 23.69C133.35 23.69 159.79 34.63 179.67 54.51L189.47 64.31L199.27 54.51C219.16 34.63 245.59 23.69 273.72 23.69C301.84 23.69 328.27 34.63 348.15 54.51C389.2 95.57 389.2 162.36 348.15 203.4ZM325.15 77.51C311.42 63.77 293.15 56.21 273.72 56.21C254.28 56.21 236.01 63.77 222.27 77.51L200.97 98.82C194.87 104.92 184.08 104.92 177.97 98.82L156.67 77.51C142.93 63.77 124.66 56.21 105.23 56.21C85.8 56.21 67.52 63.77 53.78 77.51C25.41 105.89 25.41 152.04 53.78 180.4L189.47 316.09L325.15 180.4C353.53 152.04 353.53 105.89 325.15 77.51Z" />
	</g>
</svg>