<?xml version="1.0" encoding="UTF-8"?>
<svg width="18px" height="18px" viewBox="0 0 18 18" version="1.1" xmlns="http://www.w3.org/2000/svg" xmlns:xlink="http://www.w3.org/1999/xlink">
    <!-- Generator: Sketch 54.1 (76490) - https://sketchapp.com -->
    <title>Slice</title>
    <desc>Created with Sketch.</desc>
    <g id="Page-1" stroke="none" stroke-width="1" fill="none" fill-rule="evenodd">
        <g id="search-black" transform="translate(9.000000, 9.000000) scale(-1, 1) translate(-9.000000, -9.000000) " fill="#000000" fill-rule="nonzero">
            <g id="Asset-1">
                <g id="Layer_2">
                    <g id="obj">
                        <path d="M17.4407143,17.8103571 C17.3417001,17.811036 17.2466258,17.771615 17.1771429,17.7010714 L13.4775,14.0046429 C13.3319947,13.859051 13.3319947,13.6230918 13.4775,13.4775 C13.5468687,13.4078185 13.6411407,13.3686455 13.7394643,13.3686455 C13.8377878,13.3686455 13.9320599,13.4078185 14.0014286,13.4775 L17.7010714,17.1771429 C17.7707529,17.2465115 17.809926,17.3407836 17.809926,17.4391071 C17.809926,17.5374307 17.7707529,17.6317028 17.7010714,17.7010714 C17.6327892,17.771435 17.5387612,17.8109036 17.4407143,17.8103571 L17.4407143,17.8103571 Z" id="Shape"></path>
                        <path d="M8.19321429,16.3928571 C3.66728911,16.3910819 -0.00059103976,12.721283 7.00555574e-07,8.19535756 C0.000592440871,3.66943208 3.66943208,0.00059244087 8.19535756,7.00554665e-07 C12.721283,-0.000591039761 16.3910819,3.66728911 16.3928571,8.19321429 C16.3893121,12.7202828 12.7202828,16.3893121 8.19321429,16.3928571 L8.19321429,16.3928571 Z M8.19321429,0.745714286 C5.17779684,0.745715407 2.45941818,2.56250316 1.30606935,5.34863468 C0.15272052,8.13476621 0.79162615,11.3413376 2.92476793,13.4726396 C5.05790972,15.6039417 8.26503113,16.2400804 11.0501665,15.0843281 C13.8353019,13.9285758 15.6497435,11.2086306 15.6471429,8.19321429 C15.6418269,4.07924762 12.3071829,0.746041563 8.19321429,0.7425 L8.19321429,0.745714286 Z" id="Shape"></path>
                    </g>
                </g>
            </g>
        </g>
    </g>
</svg>